<?xml version="1.0" standalone="no"?>
<!DOCTYPE svg PUBLIC "-//W3C//DTD SVG 20010904//EN"
 "http://www.w3.org/TR/2001/REC-SVG-20010904/DTD/svg10.dtd">
<svg version="1.0" xmlns="http://www.w3.org/2000/svg"
 width="48.000000pt" height="48.000000pt" viewBox="0 0 48.000000 48.000000"
 preserveAspectRatio="xMidYMid meet" role="img" style="">

<g transform="translate(0.000000,48.000000) scale(0.100000,-0.100000)"
fill="currentColor" stroke="none">
<path d="M166 459 c-77 -11 -141 -21 -142 -22 -7 -8 50 -287 73 -353 l28 -81
148 42 c81 24 150 44 152 46 2 2 8 49 15 104 6 55 13 114 16 132 6 29 1 35
-71 92 -42 34 -77 61 -78 60 -1 -1 -65 -10 -141 -20z m197 -51 c31 -24 56 -46
57 -49 0 -4 -21 -11 -47 -16 -46 -9 -49 -8 -85 25 l-37 35 -70 -11 c-94 -16
-118 -15 -125 4 -4 9 -5 19 -3 21 5 4 183 30 223 32 21 1 47 -11 87 -41z m-75
-117 l31 -39 -51 -12 c-48 -12 -52 -11 -67 9 -15 20 -21 21 -59 13 -38 -9 -44
-8 -53 10 -14 26 -10 29 64 44 96 19 101 18 135 -25z m-78 -120 c14 -28 15
-27 -36 -40 -52 -13 -53 -13 -56 19 -2 18 3 25 22 31 43 12 59 10 70 -10z"/>
</g>
</svg>
